<svg viewBox="0 0 105 105" fill="none" xmlns="http://www.w3.org/2000/svg"><g clip-path="url(#a)"><circle cx="53" cy="53" r="45.54" fill="#EEE"/><ellipse cx="53.468" cy="35.404" rx="25.102" ry="25.456" fill="#fff"/><path d="M70.259 35.404c0 9.445-7.544 17.055-16.79 17.055-9.248 0-16.791-7.61-16.791-17.055S44.22 18.35 53.468 18.35s16.79 7.61 16.79 17.054Z" fill="#FFE600" stroke="#fff" stroke-width="3.938"/><path d="M58.257 30.162c-.69-1.569-2.248-2.534-4.975-2.534-2.856 0-4.978 1.614-4.978 3.98 0 2.932 1.73 3.526 4.36 4.226l.495.136.328.093c2.115.604 4.77 1.189 5.003 3.542.234 2.354-1.627 4.45-5.398 4.441-2.666-.006-4.919-1.263-5.322-3.249m5.593-16.067v2.896m0 16.621v2.896" stroke="#333" stroke-width="1.969"/><ellipse cx="53.468" cy="35.403" rx="18.759" ry="19.023" stroke="#333" stroke-width="1.969"/><mask id="b" fill="#fff"><rect x="32.364" y="85.382" width="50.205" height="10.001" rx="1.313"/></mask><rect x="32.364" y="85.382" width="50.205" height="10.001" rx="1.313" fill="#fff" stroke="#fff" stroke-width="5.25" mask="url(#b)"/><rect x="32.364" y="85.382" width="50.205" height="10.001" rx="1.313" stroke="#333" stroke-width="1.969"/><mask id="c" fill="#fff"><rect x="24.368" y="75.381" width="50.205" height="10.001" rx="1.313"/></mask><rect x="24.368" y="75.381" width="50.205" height="10.001" rx="1.313" fill="#fff" stroke="#fff" stroke-width="5.25" mask="url(#c)"/><rect x="24.368" y="75.381" width="50.205" height="10.001" rx="1.313" stroke="#333" stroke-width="1.969"/><mask id="d" fill="#fff"><rect x="29.698" y="65.38" width="50.205" height="10.001" rx="1.313"/></mask><rect x="29.698" y="65.38" width="50.205" height="10.001" rx="1.313" fill="#fff" stroke="#fff" stroke-width="5.25" mask="url(#d)"/><rect x="29.698" y="65.38" width="50.205" height="10.001" rx="1.313" stroke="#333" stroke-width="1.969"/><path stroke="#333" stroke-width="1.969" d="M30.914 77.716v5.331m7.548-5.329v5.33m7.548-5.33v5.33m7.548-5.33v5.33m7.548-5.33v5.33m7.548-5.33v5.33m-29.744 4.69v5.33m7.547-5.329v5.331m7.548-5.331v5.331m7.548-5.331v5.331m7.548-5.331v5.331m7.548-5.331v5.331M36.244 67.7v5.33m7.548-5.329v5.33m7.548-5.33v5.33m7.548-5.33v5.33m7.548-5.33v5.33m7.548-5.33v5.33M34.922 18.25c4.59-5.102 11.2-8.302 18.546-8.302 13.864 0 25.103 11.397 25.103 25.456A25.585 25.585 0 0 1 74 50.054m-42.37-27.21a25.616 25.616 0 0 0-3.264 12.56c0 14.059 11.238 25.456 25.102 25.456 3.224 0 6.306-.617 9.137-1.74m4.833-2.563a25.256 25.256 0 0 0 3.051-2.443"/><circle cx="74" cy="22.843" r="8.531" fill="#fff" stroke="#fff" stroke-width="3.938"/><circle cx="74" cy="22.843" r="10.5" stroke="#333" stroke-width="1.969"/><path d="M74 17.128v10.5m0 0-3.937-3.818M74 27.628l3.938-3.818" stroke="#333" stroke-width="1.969"/></g><defs><clipPath id="a"><path fill="#fff" transform="translate(.5 .5)" d="M0 0h105v105H0z"/></clipPath></defs></svg>